<svg xmlns="http://www.w3.org/2000/svg" viewBox="0 0 100 100"><path fill="#45A4EC" d="M50 100C22.4 100 0 77.6 0 50S22.4 0 50 0h37.5C94.4 0 100 5.6 100 12.5V50c0 27.6-22.4 50-50 50z"/><path fill="#FFF" d="M65.3 29.6h-25c-6.9 0-12.5 5.6-12.5 12.5v21.3c0 1.5 1.2 2.8 2.8 2.8h34.7c6.9 0 12.5-5.6 12.5-12.5V42.1c0-6.9-5.6-12.5-12.5-12.5zm-9 26.8H38.2c-1.3 0-2.4-1.1-2.4-2.4s1.1-2.4 2.4-2.4h18.1c1.3 0 2.4 1.1 2.4 2.4s-1.1 2.4-2.4 2.4zm11.1-11.9H38.2c-1.3 0-2.4-1.1-2.4-2.4s1.1-2.4 2.4-2.4h29.2c1.3 0 2.4 1.1 2.4 2.4s-1 2.4-2.4 2.4z"/></svg>